<?xml version="1.0" encoding="utf-8"?><!DOCTYPE svg PUBLIC "-//W3C//DTD SVG 1.1//EN" "http://www.w3.org/Graphics/SVG/1.1/DTD/svg11.dtd"><svg version="1.1" id="图形" xmlns="http://www.w3.org/2000/svg" xmlns:xlink="http://www.w3.org/1999/xlink" x="0px" y="0px" width="1024px" height="1024px" viewBox="0 0 1024 1024" enable-background="new 0 0 1024 1024" xml:space="preserve"><path fill="#272636" d="M1002.048 172c-9.706667 0-18.325333 6.634667-20.693333 16.213333C980.544 191.434667 962.816 257.333333 895.957333 257.333333c-70.741333 0-108.565333-72.853333-108.949333-73.6-3.626667-7.168-11.008-11.712-19.050667-11.712-0.021333 0-0.042667 0-0.064 0-8.042667 0.042667-15.424 4.565333-19.029333 11.776C748.522667 184.48 710.698667 257.333333 639.957333 257.333333s-108.565333-72.853333-108.949333-73.6c-4.032-7.914667-12.693333-12.437333-21.418667-11.562667-8.853333 1.002667-16.170667 7.36-18.325333 16C490.538667 190.837333 471.829333 257.333333 383.957333 257.333333c-88.981333 0-107.136-68.48-107.306667-69.162667C274.261333 178.656 265.749333 172 255.957333 172s-18.325333 6.656-20.693333 16.170667C234.538667 190.837333 215.829333 257.333333 127.957333 257.333333c-29.717333 0-52.074667-7.36-66.496-21.845333-17.941333-18.069333-18.282667-41.770667-18.282667-42.005333 0.064-11.626667-9.173333-21.184-20.8-21.482667-11.52-0.085333-21.333333 8.768-21.845333 20.394667-6.208 140.778667 44.010667 274.346667 141.44 376.170667C239.509333 670.517333 370.901333 726.666667 511.957333 726.666667s272.448-56.149333 369.984-158.101333c97.429333-101.802667 147.648-235.413333 141.44-376.170667-0.469333-10.602667-8.661333-19.264-19.242667-20.288C1003.456 172.042667 1002.752 172 1002.048 172zM639.957333 300c63.274667 0 105.578667-39.338667 128-67.968 22.421333 28.629333 64.725333 67.968 128 67.968 35.2 0 62.186667-12.629333 82.154667-29.781333-11.626667 100.586667-55.424 194.090667-126.976 268.864C761.685333 632.522667 641.237333 684 511.957333 684c-129.28 0-249.749333-51.477333-339.178667-144.938667-69.589333-72.725333-112.896-163.136-125.930667-260.586667C68.010667 292.768 95.189333 300 127.957333 300c65.109333 0 105.642667-29.589333 128-59.690667 22.357333 30.101333 62.890667 59.690667 128 59.690667 68.266667 0 109.504-32.512 131.114667-64.064C538.197333 264.096 579.498667 300 639.957333 300zM511.957333 684c-11.776 0-21.333333 9.536-21.333333 21.333333L490.624 790.666667c0 11.797333 9.557333 21.333333 21.333333 21.333333s21.333333-9.536 21.333333-21.333333l0-85.333333C533.290667 693.536 523.733333 684 511.957333 684zM565.290667-196c-37.098667 0-74.666667 23.808-74.666667 69.333333L490.624 193.333333c0 11.797333 9.557333 21.333333 21.333333 21.333333s21.333333-9.536 21.333333-21.333333l0-320c0-25.92 28.736-26.666667 32-26.666667s32 0.746667 32 26.666667c0 11.797333 9.557333 21.333333 21.333333 21.333333s21.333333-9.536 21.333333-21.333333C639.957333-172.192 602.389333-196 565.290667-196z" transform="translate(0, 812) scale(1, -1)"/></svg>